<svg viewBox="0 0 400 400" xmlns="http://www.w3.org/2000/svg"><defs><g id="rice-ear" fill="#84ac84" stroke="#84ac84" stroke-width="4" stroke-linecap="round" stroke-linejoin="round" transform="scale(0.25)"><path d="M 195 320 A 100 100 0 0 1 160 260 A 500 500 0 0 1 160 140 A 100 100 0 0 1 170 100 A 100 100 0 0 1 200 60 A 6 7 0 0 1 210 65 A 300 500 0 0 1 220 280 A 50 50 0 0 1 198 320 Z"/></g><g id="rice-ears-right"><path d="M 100 370 A 200 250 0 0 1 280 50" fill="none"/><g fill="#84ac84" stroke="#84ac84" stroke-width="4" stroke-linecap="round" stroke-linejoin="round" transform="translate(-55,-50) rotate(75 200 200) scale(0.75,0.75) scale(0.25)"><path d="M 195 320 A 100 100 0 0 1 160 260 A 500 500 0 0 1 160 140 A 100 100 0 0 1 170 100 A 100 100 0 0 1 200 60 A 6 7 0 0 1 210 65 A 300 500 0 0 1 220 280 A 50 50 0 0 1 198 320 Z"/></g><g fill="#84ac84" stroke="#84ac84" stroke-width="4" stroke-linecap="round" stroke-linejoin="round" transform="translate(-25,30) rotate(75 200 200) scale(0.25)"><path d="M 195 320 A 100 100 0 0 1 160 260 A 500 500 0 0 1 160 140 A 100 100 0 0 1 170 100 A 100 100 0 0 1 200 60 A 6 7 0 0 1 210 65 A 300 500 0 0 1 220 280 A 50 50 0 0 1 198 320 Z"/></g><g fill="#84ac84" stroke="#84ac84" stroke-width="4" stroke-linecap="round" stroke-linejoin="round" transform="translate(-95,120) rotate(90 200 200) scale(-1,1) scale(0.25)"><path d="M 195 320 A 100 100 0 0 1 160 260 A 500 500 0 0 1 160 140 A 100 100 0 0 1 170 100 A 100 100 0 0 1 200 60 A 6 7 0 0 1 210 65 A 300 500 0 0 1 220 280 A 50 50 0 0 1 198 320 Z"/></g><g fill="#84ac84" stroke="#84ac84" stroke-width="4" stroke-linecap="round" stroke-linejoin="round" transform="translate(10,55) rotate(50 200 200) scale(0.25)"><path d="M 195 320 A 100 100 0 0 1 160 260 A 500 500 0 0 1 160 140 A 100 100 0 0 1 170 100 A 100 100 0 0 1 200 60 A 6 7 0 0 1 210 65 A 300 500 0 0 1 220 280 A 50 50 0 0 1 198 320 Z"/></g><g fill="#84ac84" stroke="#84ac84" stroke-width="4" stroke-linecap="round" stroke-linejoin="round" transform="translate(30,145) rotate(60 200 200) scale(0.25)"><path d="M 195 320 A 100 100 0 0 1 160 260 A 500 500 0 0 1 160 140 A 100 100 0 0 1 170 100 A 100 100 0 0 1 200 60 A 6 7 0 0 1 210 65 A 300 500 0 0 1 220 280 A 50 50 0 0 1 198 320 Z"/></g><g fill="#84ac84" stroke="#84ac84" stroke-width="4" stroke-linecap="round" stroke-linejoin="round" transform="translate(-130,140) rotate(90 200 200) scale(-1,1) scale(0.25)"><path d="M 195 320 A 100 100 0 0 1 160 260 A 500 500 0 0 1 160 140 A 100 100 0 0 1 170 100 A 100 100 0 0 1 200 60 A 6 7 0 0 1 210 65 A 300 500 0 0 1 220 280 A 50 50 0 0 1 198 320 Z"/></g><g fill="#84ac84" stroke="#84ac84" stroke-width="4" stroke-linecap="round" stroke-linejoin="round" transform="translate(20,75) rotate(35 200 200) scale(0.25)"><path d="M 195 320 A 100 100 0 0 1 160 260 A 500 500 0 0 1 160 140 A 100 100 0 0 1 170 100 A 100 100 0 0 1 200 60 A 6 7 0 0 1 210 65 A 300 500 0 0 1 220 280 A 50 50 0 0 1 198 320 Z"/></g><g fill="#84ac84" stroke="#84ac84" stroke-width="4" stroke-linecap="round" stroke-linejoin="round" transform="translate(-115,185) rotate(80 200 200) scale(-1,1) scale(0.25)"><path d="M 195 320 A 100 100 0 0 1 160 260 A 500 500 0 0 1 160 140 A 100 100 0 0 1 170 100 A 100 100 0 0 1 200 60 A 6 7 0 0 1 210 65 A 300 500 0 0 1 220 280 A 50 50 0 0 1 198 320 Z"/></g><g fill="#84ac84" stroke="#84ac84" stroke-width="4" stroke-linecap="round" stroke-linejoin="round" transform="translate(-90,230) rotate(70 200 200) scale(-1,1) scale(0.25)"><path d="M 195 320 A 100 100 0 0 1 160 260 A 500 500 0 0 1 160 140 A 100 100 0 0 1 170 100 A 100 100 0 0 1 200 60 A 6 7 0 0 1 210 65 A 300 500 0 0 1 220 280 A 50 50 0 0 1 198 320 Z"/></g><g fill="#84ac84" stroke="#84ac84" stroke-width="4" stroke-linecap="round" stroke-linejoin="round" transform="translate(30,100) rotate(20 200 200) scale(0.25)"><path d="M 195 320 A 100 100 0 0 1 160 260 A 500 500 0 0 1 160 140 A 100 100 0 0 1 170 100 A 100 100 0 0 1 200 60 A 6 7 0 0 1 210 65 A 300 500 0 0 1 220 280 A 50 50 0 0 1 198 320 Z"/></g><g fill="#84ac84" stroke="#84ac84" stroke-width="4" stroke-linecap="round" stroke-linejoin="round" transform="translate(20,50) rotate(10 200 200) scale(1.1,1.1) scale(0.25)"><path d="M 195 320 A 100 100 0 0 1 160 260 A 500 500 0 0 1 160 140 A 100 100 0 0 1 170 100 A 100 100 0 0 1 200 60 A 6 7 0 0 1 210 65 A 300 500 0 0 1 220 280 A 50 50 0 0 1 198 320 Z"/></g><g fill="#84ac84" stroke="#84ac84" stroke-width="4" stroke-linecap="round" stroke-linejoin="round" transform="translate(-100,260) rotate(90 200 200) scale(-1.1,1.1) scale(0.25)"><path d="M 195 320 A 100 100 0 0 1 160 260 A 500 500 0 0 1 160 140 A 100 100 0 0 1 170 100 A 100 100 0 0 1 200 60 A 6 7 0 0 1 210 65 A 300 500 0 0 1 220 280 A 50 50 0 0 1 198 320 Z"/></g></g><g id="rice-ears-pattern" stroke="#84ac84" stroke-width="4" stroke-linecap="round" stroke-linejoin="round"><g transform="translate(158,0) scale(0.75,0.75)" fill="#84ac84"><path d="M 100 370 A 200 250 0 0 1 280 50" fill="none"/><g fill="#84ac84" stroke="#84ac84" stroke-width="4" stroke-linecap="round" stroke-linejoin="round" transform="translate(-55,-50) rotate(75 200 200) scale(0.75,0.75) scale(0.25)"><path d="M 195 320 A 100 100 0 0 1 160 260 A 500 500 0 0 1 160 140 A 100 100 0 0 1 170 100 A 100 100 0 0 1 200 60 A 6 7 0 0 1 210 65 A 300 500 0 0 1 220 280 A 50 50 0 0 1 198 320 Z"/></g><g fill="#84ac84" stroke="#84ac84" stroke-width="4" stroke-linecap="round" stroke-linejoin="round" transform="translate(-25,30) rotate(75 200 200) scale(0.25)"><path d="M 195 320 A 100 100 0 0 1 160 260 A 500 500 0 0 1 160 140 A 100 100 0 0 1 170 100 A 100 100 0 0 1 200 60 A 6 7 0 0 1 210 65 A 300 500 0 0 1 220 280 A 50 50 0 0 1 198 320 Z"/></g><g fill="#84ac84" stroke="#84ac84" stroke-width="4" stroke-linecap="round" stroke-linejoin="round" transform="translate(-95,120) rotate(90 200 200) scale(-1,1) scale(0.25)"><path d="M 195 320 A 100 100 0 0 1 160 260 A 500 500 0 0 1 160 140 A 100 100 0 0 1 170 100 A 100 100 0 0 1 200 60 A 6 7 0 0 1 210 65 A 300 500 0 0 1 220 280 A 50 50 0 0 1 198 320 Z"/></g><g fill="#84ac84" stroke="#84ac84" stroke-width="4" stroke-linecap="round" stroke-linejoin="round" transform="translate(10,55) rotate(50 200 200) scale(0.25)"><path d="M 195 320 A 100 100 0 0 1 160 260 A 500 500 0 0 1 160 140 A 100 100 0 0 1 170 100 A 100 100 0 0 1 200 60 A 6 7 0 0 1 210 65 A 300 500 0 0 1 220 280 A 50 50 0 0 1 198 320 Z"/></g><g fill="#84ac84" stroke="#84ac84" stroke-width="4" stroke-linecap="round" stroke-linejoin="round" transform="translate(30,145) rotate(60 200 200) scale(0.25)"><path d="M 195 320 A 100 100 0 0 1 160 260 A 500 500 0 0 1 160 140 A 100 100 0 0 1 170 100 A 100 100 0 0 1 200 60 A 6 7 0 0 1 210 65 A 300 500 0 0 1 220 280 A 50 50 0 0 1 198 320 Z"/></g><g fill="#84ac84" stroke="#84ac84" stroke-width="4" stroke-linecap="round" stroke-linejoin="round" transform="translate(-130,140) rotate(90 200 200) scale(-1,1) scale(0.25)"><path d="M 195 320 A 100 100 0 0 1 160 260 A 500 500 0 0 1 160 140 A 100 100 0 0 1 170 100 A 100 100 0 0 1 200 60 A 6 7 0 0 1 210 65 A 300 500 0 0 1 220 280 A 50 50 0 0 1 198 320 Z"/></g><g fill="#84ac84" stroke="#84ac84" stroke-width="4" stroke-linecap="round" stroke-linejoin="round" transform="translate(20,75) rotate(35 200 200) scale(0.25)"><path d="M 195 320 A 100 100 0 0 1 160 260 A 500 500 0 0 1 160 140 A 100 100 0 0 1 170 100 A 100 100 0 0 1 200 60 A 6 7 0 0 1 210 65 A 300 500 0 0 1 220 280 A 50 50 0 0 1 198 320 Z"/></g><g fill="#84ac84" stroke="#84ac84" stroke-width="4" stroke-linecap="round" stroke-linejoin="round" transform="translate(-115,185) rotate(80 200 200) scale(-1,1) scale(0.25)"><path d="M 195 320 A 100 100 0 0 1 160 260 A 500 500 0 0 1 160 140 A 100 100 0 0 1 170 100 A 100 100 0 0 1 200 60 A 6 7 0 0 1 210 65 A 300 500 0 0 1 220 280 A 50 50 0 0 1 198 320 Z"/></g><g fill="#84ac84" stroke="#84ac84" stroke-width="4" stroke-linecap="round" stroke-linejoin="round" transform="translate(-90,230) rotate(70 200 200) scale(-1,1) scale(0.25)"><path d="M 195 320 A 100 100 0 0 1 160 260 A 500 500 0 0 1 160 140 A 100 100 0 0 1 170 100 A 100 100 0 0 1 200 60 A 6 7 0 0 1 210 65 A 300 500 0 0 1 220 280 A 50 50 0 0 1 198 320 Z"/></g><g fill="#84ac84" stroke="#84ac84" stroke-width="4" stroke-linecap="round" stroke-linejoin="round" transform="translate(30,100) rotate(20 200 200) scale(0.25)"><path d="M 195 320 A 100 100 0 0 1 160 260 A 500 500 0 0 1 160 140 A 100 100 0 0 1 170 100 A 100 100 0 0 1 200 60 A 6 7 0 0 1 210 65 A 300 500 0 0 1 220 280 A 50 50 0 0 1 198 320 Z"/></g><g fill="#84ac84" stroke="#84ac84" stroke-width="4" stroke-linecap="round" stroke-linejoin="round" transform="translate(20,50) rotate(10 200 200) scale(1.1,1.1) scale(0.25)"><path d="M 195 320 A 100 100 0 0 1 160 260 A 500 500 0 0 1 160 140 A 100 100 0 0 1 170 100 A 100 100 0 0 1 200 60 A 6 7 0 0 1 210 65 A 300 500 0 0 1 220 280 A 50 50 0 0 1 198 320 Z"/></g><g fill="#84ac84" stroke="#84ac84" stroke-width="4" stroke-linecap="round" stroke-linejoin="round" transform="translate(-100,260) rotate(90 200 200) scale(-1.1,1.1) scale(0.25)"><path d="M 195 320 A 100 100 0 0 1 160 260 A 500 500 0 0 1 160 140 A 100 100 0 0 1 170 100 A 100 100 0 0 1 200 60 A 6 7 0 0 1 210 65 A 300 500 0 0 1 220 280 A 50 50 0 0 1 198 320 Z"/></g></g><g transform="translate(315,75) scale(-0.9,0.9) rotate(10 200 200)" fill="#84ac84"><path d="M 100 370 A 200 250 0 0 1 280 50" fill="none"/><g fill="#84ac84" stroke="#84ac84" stroke-width="4" stroke-linecap="round" stroke-linejoin="round" transform="translate(-55,-50) rotate(75 200 200) scale(0.75,0.75) scale(0.25)"><path d="M 195 320 A 100 100 0 0 1 160 260 A 500 500 0 0 1 160 140 A 100 100 0 0 1 170 100 A 100 100 0 0 1 200 60 A 6 7 0 0 1 210 65 A 300 500 0 0 1 220 280 A 50 50 0 0 1 198 320 Z"/></g><g fill="#84ac84" stroke="#84ac84" stroke-width="4" stroke-linecap="round" stroke-linejoin="round" transform="translate(-25,30) rotate(75 200 200) scale(0.25)"><path d="M 195 320 A 100 100 0 0 1 160 260 A 500 500 0 0 1 160 140 A 100 100 0 0 1 170 100 A 100 100 0 0 1 200 60 A 6 7 0 0 1 210 65 A 300 500 0 0 1 220 280 A 50 50 0 0 1 198 320 Z"/></g><g fill="#84ac84" stroke="#84ac84" stroke-width="4" stroke-linecap="round" stroke-linejoin="round" transform="translate(-95,120) rotate(90 200 200) scale(-1,1) scale(0.25)"><path d="M 195 320 A 100 100 0 0 1 160 260 A 500 500 0 0 1 160 140 A 100 100 0 0 1 170 100 A 100 100 0 0 1 200 60 A 6 7 0 0 1 210 65 A 300 500 0 0 1 220 280 A 50 50 0 0 1 198 320 Z"/></g><g fill="#84ac84" stroke="#84ac84" stroke-width="4" stroke-linecap="round" stroke-linejoin="round" transform="translate(10,55) rotate(50 200 200) scale(0.25)"><path d="M 195 320 A 100 100 0 0 1 160 260 A 500 500 0 0 1 160 140 A 100 100 0 0 1 170 100 A 100 100 0 0 1 200 60 A 6 7 0 0 1 210 65 A 300 500 0 0 1 220 280 A 50 50 0 0 1 198 320 Z"/></g><g fill="#84ac84" stroke="#84ac84" stroke-width="4" stroke-linecap="round" stroke-linejoin="round" transform="translate(30,145) rotate(60 200 200) scale(0.25)"><path d="M 195 320 A 100 100 0 0 1 160 260 A 500 500 0 0 1 160 140 A 100 100 0 0 1 170 100 A 100 100 0 0 1 200 60 A 6 7 0 0 1 210 65 A 300 500 0 0 1 220 280 A 50 50 0 0 1 198 320 Z"/></g><g fill="#84ac84" stroke="#84ac84" stroke-width="4" stroke-linecap="round" stroke-linejoin="round" transform="translate(-130,140) rotate(90 200 200) scale(-1,1) scale(0.25)"><path d="M 195 320 A 100 100 0 0 1 160 260 A 500 500 0 0 1 160 140 A 100 100 0 0 1 170 100 A 100 100 0 0 1 200 60 A 6 7 0 0 1 210 65 A 300 500 0 0 1 220 280 A 50 50 0 0 1 198 320 Z"/></g><g fill="#84ac84" stroke="#84ac84" stroke-width="4" stroke-linecap="round" stroke-linejoin="round" transform="translate(20,75) rotate(35 200 200) scale(0.25)"><path d="M 195 320 A 100 100 0 0 1 160 260 A 500 500 0 0 1 160 140 A 100 100 0 0 1 170 100 A 100 100 0 0 1 200 60 A 6 7 0 0 1 210 65 A 300 500 0 0 1 220 280 A 50 50 0 0 1 198 320 Z"/></g><g fill="#84ac84" stroke="#84ac84" stroke-width="4" stroke-linecap="round" stroke-linejoin="round" transform="translate(-115,185) rotate(80 200 200) scale(-1,1) scale(0.25)"><path d="M 195 320 A 100 100 0 0 1 160 260 A 500 500 0 0 1 160 140 A 100 100 0 0 1 170 100 A 100 100 0 0 1 200 60 A 6 7 0 0 1 210 65 A 300 500 0 0 1 220 280 A 50 50 0 0 1 198 320 Z"/></g><g fill="#84ac84" stroke="#84ac84" stroke-width="4" stroke-linecap="round" stroke-linejoin="round" transform="translate(-90,230) rotate(70 200 200) scale(-1,1) scale(0.25)"><path d="M 195 320 A 100 100 0 0 1 160 260 A 500 500 0 0 1 160 140 A 100 100 0 0 1 170 100 A 100 100 0 0 1 200 60 A 6 7 0 0 1 210 65 A 300 500 0 0 1 220 280 A 50 50 0 0 1 198 320 Z"/></g><g fill="#84ac84" stroke="#84ac84" stroke-width="4" stroke-linecap="round" stroke-linejoin="round" transform="translate(30,100) rotate(20 200 200) scale(0.25)"><path d="M 195 320 A 100 100 0 0 1 160 260 A 500 500 0 0 1 160 140 A 100 100 0 0 1 170 100 A 100 100 0 0 1 200 60 A 6 7 0 0 1 210 65 A 300 500 0 0 1 220 280 A 50 50 0 0 1 198 320 Z"/></g><g fill="#84ac84" stroke="#84ac84" stroke-width="4" stroke-linecap="round" stroke-linejoin="round" transform="translate(20,50) rotate(10 200 200) scale(1.1,1.1) scale(0.25)"><path d="M 195 320 A 100 100 0 0 1 160 260 A 500 500 0 0 1 160 140 A 100 100 0 0 1 170 100 A 100 100 0 0 1 200 60 A 6 7 0 0 1 210 65 A 300 500 0 0 1 220 280 A 50 50 0 0 1 198 320 Z"/></g><g fill="#84ac84" stroke="#84ac84" stroke-width="4" stroke-linecap="round" stroke-linejoin="round" transform="translate(-100,260) rotate(90 200 200) scale(-1.1,1.1) scale(0.25)"><path d="M 195 320 A 100 100 0 0 1 160 260 A 500 500 0 0 1 160 140 A 100 100 0 0 1 170 100 A 100 100 0 0 1 200 60 A 6 7 0 0 1 210 65 A 300 500 0 0 1 220 280 A 50 50 0 0 1 198 320 Z"/></g></g></g></defs><g stroke="#84ac84" stroke-width="4" stroke-linecap="round" stroke-linejoin="round"><g transform="translate(158,0) scale(0.75,0.75)" fill="#84ac84"><path d="M 100 370 A 200 250 0 0 1 280 50" fill="none"/><g fill="#84ac84" stroke="#84ac84" stroke-width="4" stroke-linecap="round" stroke-linejoin="round" transform="translate(-55,-50) rotate(75 200 200) scale(0.75,0.75) scale(0.25)"><path d="M 195 320 A 100 100 0 0 1 160 260 A 500 500 0 0 1 160 140 A 100 100 0 0 1 170 100 A 100 100 0 0 1 200 60 A 6 7 0 0 1 210 65 A 300 500 0 0 1 220 280 A 50 50 0 0 1 198 320 Z"/></g><g fill="#84ac84" stroke="#84ac84" stroke-width="4" stroke-linecap="round" stroke-linejoin="round" transform="translate(-25,30) rotate(75 200 200) scale(0.25)"><path d="M 195 320 A 100 100 0 0 1 160 260 A 500 500 0 0 1 160 140 A 100 100 0 0 1 170 100 A 100 100 0 0 1 200 60 A 6 7 0 0 1 210 65 A 300 500 0 0 1 220 280 A 50 50 0 0 1 198 320 Z"/></g><g fill="#84ac84" stroke="#84ac84" stroke-width="4" stroke-linecap="round" stroke-linejoin="round" transform="translate(-95,120) rotate(90 200 200) scale(-1,1) scale(0.25)"><path d="M 195 320 A 100 100 0 0 1 160 260 A 500 500 0 0 1 160 140 A 100 100 0 0 1 170 100 A 100 100 0 0 1 200 60 A 6 7 0 0 1 210 65 A 300 500 0 0 1 220 280 A 50 50 0 0 1 198 320 Z"/></g><g fill="#84ac84" stroke="#84ac84" stroke-width="4" stroke-linecap="round" stroke-linejoin="round" transform="translate(10,55) rotate(50 200 200) scale(0.25)"><path d="M 195 320 A 100 100 0 0 1 160 260 A 500 500 0 0 1 160 140 A 100 100 0 0 1 170 100 A 100 100 0 0 1 200 60 A 6 7 0 0 1 210 65 A 300 500 0 0 1 220 280 A 50 50 0 0 1 198 320 Z"/></g><g fill="#84ac84" stroke="#84ac84" stroke-width="4" stroke-linecap="round" stroke-linejoin="round" transform="translate(30,145) rotate(60 200 200) scale(0.25)"><path d="M 195 320 A 100 100 0 0 1 160 260 A 500 500 0 0 1 160 140 A 100 100 0 0 1 170 100 A 100 100 0 0 1 200 60 A 6 7 0 0 1 210 65 A 300 500 0 0 1 220 280 A 50 50 0 0 1 198 320 Z"/></g><g fill="#84ac84" stroke="#84ac84" stroke-width="4" stroke-linecap="round" stroke-linejoin="round" transform="translate(-130,140) rotate(90 200 200) scale(-1,1) scale(0.25)"><path d="M 195 320 A 100 100 0 0 1 160 260 A 500 500 0 0 1 160 140 A 100 100 0 0 1 170 100 A 100 100 0 0 1 200 60 A 6 7 0 0 1 210 65 A 300 500 0 0 1 220 280 A 50 50 0 0 1 198 320 Z"/></g><g fill="#84ac84" stroke="#84ac84" stroke-width="4" stroke-linecap="round" stroke-linejoin="round" transform="translate(20,75) rotate(35 200 200) scale(0.25)"><path d="M 195 320 A 100 100 0 0 1 160 260 A 500 500 0 0 1 160 140 A 100 100 0 0 1 170 100 A 100 100 0 0 1 200 60 A 6 7 0 0 1 210 65 A 300 500 0 0 1 220 280 A 50 50 0 0 1 198 320 Z"/></g><g fill="#84ac84" stroke="#84ac84" stroke-width="4" stroke-linecap="round" stroke-linejoin="round" transform="translate(-115,185) rotate(80 200 200) scale(-1,1) scale(0.25)"><path d="M 195 320 A 100 100 0 0 1 160 260 A 500 500 0 0 1 160 140 A 100 100 0 0 1 170 100 A 100 100 0 0 1 200 60 A 6 7 0 0 1 210 65 A 300 500 0 0 1 220 280 A 50 50 0 0 1 198 320 Z"/></g><g fill="#84ac84" stroke="#84ac84" stroke-width="4" stroke-linecap="round" stroke-linejoin="round" transform="translate(-90,230) rotate(70 200 200) scale(-1,1) scale(0.25)"><path d="M 195 320 A 100 100 0 0 1 160 260 A 500 500 0 0 1 160 140 A 100 100 0 0 1 170 100 A 100 100 0 0 1 200 60 A 6 7 0 0 1 210 65 A 300 500 0 0 1 220 280 A 50 50 0 0 1 198 320 Z"/></g><g fill="#84ac84" stroke="#84ac84" stroke-width="4" stroke-linecap="round" stroke-linejoin="round" transform="translate(30,100) rotate(20 200 200) scale(0.25)"><path d="M 195 320 A 100 100 0 0 1 160 260 A 500 500 0 0 1 160 140 A 100 100 0 0 1 170 100 A 100 100 0 0 1 200 60 A 6 7 0 0 1 210 65 A 300 500 0 0 1 220 280 A 50 50 0 0 1 198 320 Z"/></g><g fill="#84ac84" stroke="#84ac84" stroke-width="4" stroke-linecap="round" stroke-linejoin="round" transform="translate(20,50) rotate(10 200 200) scale(1.1,1.1) scale(0.25)"><path d="M 195 320 A 100 100 0 0 1 160 260 A 500 500 0 0 1 160 140 A 100 100 0 0 1 170 100 A 100 100 0 0 1 200 60 A 6 7 0 0 1 210 65 A 300 500 0 0 1 220 280 A 50 50 0 0 1 198 320 Z"/></g><g fill="#84ac84" stroke="#84ac84" stroke-width="4" stroke-linecap="round" stroke-linejoin="round" transform="translate(-100,260) rotate(90 200 200) scale(-1.1,1.1) scale(0.25)"><path d="M 195 320 A 100 100 0 0 1 160 260 A 500 500 0 0 1 160 140 A 100 100 0 0 1 170 100 A 100 100 0 0 1 200 60 A 6 7 0 0 1 210 65 A 300 500 0 0 1 220 280 A 50 50 0 0 1 198 320 Z"/></g></g><g transform="translate(315,75) scale(-0.9,0.9) rotate(10 200 200)" fill="#84ac84"><path d="M 100 370 A 200 250 0 0 1 280 50" fill="none"/><g fill="#84ac84" stroke="#84ac84" stroke-width="4" stroke-linecap="round" stroke-linejoin="round" transform="translate(-55,-50) rotate(75 200 200) scale(0.75,0.75) scale(0.25)"><path d="M 195 320 A 100 100 0 0 1 160 260 A 500 500 0 0 1 160 140 A 100 100 0 0 1 170 100 A 100 100 0 0 1 200 60 A 6 7 0 0 1 210 65 A 300 500 0 0 1 220 280 A 50 50 0 0 1 198 320 Z"/></g><g fill="#84ac84" stroke="#84ac84" stroke-width="4" stroke-linecap="round" stroke-linejoin="round" transform="translate(-25,30) rotate(75 200 200) scale(0.25)"><path d="M 195 320 A 100 100 0 0 1 160 260 A 500 500 0 0 1 160 140 A 100 100 0 0 1 170 100 A 100 100 0 0 1 200 60 A 6 7 0 0 1 210 65 A 300 500 0 0 1 220 280 A 50 50 0 0 1 198 320 Z"/></g><g fill="#84ac84" stroke="#84ac84" stroke-width="4" stroke-linecap="round" stroke-linejoin="round" transform="translate(-95,120) rotate(90 200 200) scale(-1,1) scale(0.25)"><path d="M 195 320 A 100 100 0 0 1 160 260 A 500 500 0 0 1 160 140 A 100 100 0 0 1 170 100 A 100 100 0 0 1 200 60 A 6 7 0 0 1 210 65 A 300 500 0 0 1 220 280 A 50 50 0 0 1 198 320 Z"/></g><g fill="#84ac84" stroke="#84ac84" stroke-width="4" stroke-linecap="round" stroke-linejoin="round" transform="translate(10,55) rotate(50 200 200) scale(0.25)"><path d="M 195 320 A 100 100 0 0 1 160 260 A 500 500 0 0 1 160 140 A 100 100 0 0 1 170 100 A 100 100 0 0 1 200 60 A 6 7 0 0 1 210 65 A 300 500 0 0 1 220 280 A 50 50 0 0 1 198 320 Z"/></g><g fill="#84ac84" stroke="#84ac84" stroke-width="4" stroke-linecap="round" stroke-linejoin="round" transform="translate(30,145) rotate(60 200 200) scale(0.25)"><path d="M 195 320 A 100 100 0 0 1 160 260 A 500 500 0 0 1 160 140 A 100 100 0 0 1 170 100 A 100 100 0 0 1 200 60 A 6 7 0 0 1 210 65 A 300 500 0 0 1 220 280 A 50 50 0 0 1 198 320 Z"/></g><g fill="#84ac84" stroke="#84ac84" stroke-width="4" stroke-linecap="round" stroke-linejoin="round" transform="translate(-130,140) rotate(90 200 200) scale(-1,1) scale(0.25)"><path d="M 195 320 A 100 100 0 0 1 160 260 A 500 500 0 0 1 160 140 A 100 100 0 0 1 170 100 A 100 100 0 0 1 200 60 A 6 7 0 0 1 210 65 A 300 500 0 0 1 220 280 A 50 50 0 0 1 198 320 Z"/></g><g fill="#84ac84" stroke="#84ac84" stroke-width="4" stroke-linecap="round" stroke-linejoin="round" transform="translate(20,75) rotate(35 200 200) scale(0.25)"><path d="M 195 320 A 100 100 0 0 1 160 260 A 500 500 0 0 1 160 140 A 100 100 0 0 1 170 100 A 100 100 0 0 1 200 60 A 6 7 0 0 1 210 65 A 300 500 0 0 1 220 280 A 50 50 0 0 1 198 320 Z"/></g><g fill="#84ac84" stroke="#84ac84" stroke-width="4" stroke-linecap="round" stroke-linejoin="round" transform="translate(-115,185) rotate(80 200 200) scale(-1,1) scale(0.25)"><path d="M 195 320 A 100 100 0 0 1 160 260 A 500 500 0 0 1 160 140 A 100 100 0 0 1 170 100 A 100 100 0 0 1 200 60 A 6 7 0 0 1 210 65 A 300 500 0 0 1 220 280 A 50 50 0 0 1 198 320 Z"/></g><g fill="#84ac84" stroke="#84ac84" stroke-width="4" stroke-linecap="round" stroke-linejoin="round" transform="translate(-90,230) rotate(70 200 200) scale(-1,1) scale(0.25)"><path d="M 195 320 A 100 100 0 0 1 160 260 A 500 500 0 0 1 160 140 A 100 100 0 0 1 170 100 A 100 100 0 0 1 200 60 A 6 7 0 0 1 210 65 A 300 500 0 0 1 220 280 A 50 50 0 0 1 198 320 Z"/></g><g fill="#84ac84" stroke="#84ac84" stroke-width="4" stroke-linecap="round" stroke-linejoin="round" transform="translate(30,100) rotate(20 200 200) scale(0.25)"><path d="M 195 320 A 100 100 0 0 1 160 260 A 500 500 0 0 1 160 140 A 100 100 0 0 1 170 100 A 100 100 0 0 1 200 60 A 6 7 0 0 1 210 65 A 300 500 0 0 1 220 280 A 50 50 0 0 1 198 320 Z"/></g><g fill="#84ac84" stroke="#84ac84" stroke-width="4" stroke-linecap="round" stroke-linejoin="round" transform="translate(20,50) rotate(10 200 200) scale(1.1,1.1) scale(0.25)"><path d="M 195 320 A 100 100 0 0 1 160 260 A 500 500 0 0 1 160 140 A 100 100 0 0 1 170 100 A 100 100 0 0 1 200 60 A 6 7 0 0 1 210 65 A 300 500 0 0 1 220 280 A 50 50 0 0 1 198 320 Z"/></g><g fill="#84ac84" stroke="#84ac84" stroke-width="4" stroke-linecap="round" stroke-linejoin="round" transform="translate(-100,260) rotate(90 200 200) scale(-1.1,1.1) scale(0.25)"><path d="M 195 320 A 100 100 0 0 1 160 260 A 500 500 0 0 1 160 140 A 100 100 0 0 1 170 100 A 100 100 0 0 1 200 60 A 6 7 0 0 1 210 65 A 300 500 0 0 1 220 280 A 50 50 0 0 1 198 320 Z"/></g></g></g></svg>